<svg width="1200" height="900" viewBox="0 0 1200 900" fill="none" xmlns="http://www.w3.org/2000/svg">
<path d="M809.92 63.41C839.54 72.02 971.92 114.31 1028.37 228.26C1107.62 388.14 973.46 559.77 936.66 606.85C852.28 714.79 626.66 916 402.11 834.85C222.24 769.85 148.42 549.85 183.03 394.03C240.05 137.2 574.91 -4.91999 809.92 63.41Z" fill="#FFF3F7"/>
<path d="M998.7 456.38H937.81C936.705 456.38 935.81 457.275 935.81 458.38V483.31C935.81 484.415 936.705 485.31 937.81 485.31H998.7C999.805 485.31 1000.7 484.415 1000.7 483.31V458.38C1000.7 457.275 999.805 456.38 998.7 456.38Z" fill="#FC7E85"/>
<path d="M998.7 514.14H937.81C936.705 514.14 935.81 515.035 935.81 516.14V541.07C935.81 542.175 936.705 543.07 937.81 543.07H998.7C999.805 543.07 1000.7 542.175 1000.7 541.07V516.14C1000.7 515.035 999.805 514.14 998.7 514.14Z" fill="#FC7E85"/>
<path d="M1031.14 485.31H970.25C969.145 485.31 968.25 486.205 968.25 487.31V512.24C968.25 513.345 969.145 514.24 970.25 514.24H1031.14C1032.24 514.24 1033.14 513.345 1033.14 512.24V487.31C1033.14 486.205 1032.24 485.31 1031.14 485.31Z" stroke="#FC7E85" stroke-width="2" stroke-miterlimit="10"/>
<path d="M966.25 485.31H905.36C904.255 485.31 903.36 486.205 903.36 487.31V512.24C903.36 513.345 904.255 514.24 905.36 514.24H966.25C967.355 514.24 968.25 513.345 968.25 512.24V487.31C968.25 486.205 967.355 485.31 966.25 485.31Z" stroke="#FC7E85" stroke-width="2" stroke-miterlimit="10"/>
<path d="M286.92 599.38H226.03C224.925 599.38 224.03 600.275 224.03 601.38V626.31C224.03 627.415 224.925 628.31 226.03 628.31H286.92C288.025 628.31 288.92 627.415 288.92 626.31V601.38C288.92 600.275 288.025 599.38 286.92 599.38Z" stroke="#FC7E85" stroke-width="2" stroke-miterlimit="10"/>
<path d="M319.36 657.13H258.47C257.365 657.13 256.47 658.025 256.47 659.13V684.06C256.47 685.165 257.365 686.06 258.47 686.06H319.36C320.465 686.06 321.36 685.165 321.36 684.06V659.13C321.36 658.025 320.465 657.13 319.36 657.13Z" stroke="#FC7E85" stroke-width="2" stroke-miterlimit="10"/>
<path d="M332.84 628.31H271.95C270.845 628.31 269.95 629.205 269.95 630.31V655.24C269.95 656.345 270.845 657.24 271.95 657.24H332.84C333.945 657.24 334.84 656.345 334.84 655.24V630.31C334.84 629.205 333.945 628.31 332.84 628.31Z" stroke="#FC7E85" stroke-width="2" stroke-miterlimit="10"/>
<path d="M267.96 628.31H207.07C205.965 628.31 205.07 629.205 205.07 630.31V655.24C205.07 656.345 205.965 657.24 207.07 657.24H267.96C269.065 657.24 269.96 656.345 269.96 655.24V630.31C269.96 629.205 269.065 628.31 267.96 628.31Z" fill="#FC7E85"/>
<path d="M664.31 213.94H603.42C602.315 213.94 601.42 214.835 601.42 215.94V240.87C601.42 241.975 602.315 242.87 603.42 242.87H664.31C665.415 242.87 666.31 241.975 666.31 240.87V215.94C666.31 214.835 665.415 213.94 664.31 213.94Z" stroke="#FC7E85" stroke-width="2" stroke-miterlimit="10"/>
<path d="M686.23 271.8H625.34C624.235 271.8 623.34 272.695 623.34 273.8V298.73C623.34 299.835 624.235 300.73 625.34 300.73H686.23C687.335 300.73 688.23 299.835 688.23 298.73V273.8C688.23 272.695 687.335 271.8 686.23 271.8Z" stroke="#FC7E85" stroke-width="2" stroke-miterlimit="10"/>
<path d="M710.24 242.87H649.35C648.245 242.87 647.35 243.765 647.35 244.87V269.8C647.35 270.905 648.245 271.8 649.35 271.8H710.24C711.345 271.8 712.24 270.905 712.24 269.8V244.87C712.24 243.765 711.345 242.87 710.24 242.87Z" fill="#FC7E85"/>
<path d="M645.35 242.87H584.46C583.355 242.87 582.46 243.765 582.46 244.87V269.8C582.46 270.905 583.355 271.8 584.46 271.8H645.35C646.455 271.8 647.35 270.905 647.35 269.8V244.87C647.35 243.765 646.455 242.87 645.35 242.87Z" stroke="#FC7E85" stroke-width="2" stroke-miterlimit="10"/>
<path d="M779.79 285.09H769.92C766.328 284.91 762.878 283.629 760.04 281.42C755.555 278.091 752.297 273.373 750.77 268L748.3 259.76C746.926 255.103 744.078 251.018 740.182 248.12C736.287 245.222 731.555 243.667 726.7 243.69H699.31C694.637 243.682 690.076 245.126 686.259 247.822C682.442 250.518 679.556 254.333 678 258.74L675.18 266.82C673.97 270.328 672.031 273.539 669.49 276.244C666.95 278.948 663.865 281.084 660.44 282.51C658.1 283.51 653.68 285.09 650.44 285.09H647.08C641.719 285.085 636.579 282.953 632.788 279.162C628.997 275.371 626.865 270.231 626.86 264.87V259.87C626.865 254.509 628.997 249.369 632.788 245.578C636.579 241.787 641.719 239.655 647.08 239.65H656.52C657.05 239.65 657.559 239.861 657.934 240.236C658.309 240.611 658.52 241.12 658.52 241.65C658.52 242.18 658.309 242.689 657.934 243.064C657.559 243.439 657.05 243.65 656.52 243.65H647.08C642.78 243.655 638.657 245.366 635.617 248.407C632.576 251.447 630.865 255.57 630.86 259.87V264.87C630.865 269.17 632.576 273.293 635.617 276.333C638.657 279.374 642.78 281.085 647.08 281.09H650.44C653.388 280.813 656.268 280.042 658.96 278.81C661.861 277.595 664.471 275.78 666.62 273.484C668.77 271.189 670.409 268.464 671.43 265.49L674.26 257.42C676.079 252.237 679.46 247.746 683.937 244.563C688.414 241.381 693.767 239.665 699.26 239.65H726.7C732.418 239.622 737.99 241.453 742.577 244.867C747.164 248.281 750.517 253.094 752.13 258.58L754.6 266.81C755.866 271.347 758.598 275.338 762.37 278.16C764.528 279.885 767.163 280.907 769.92 281.09H779.79C784.088 281.082 788.208 279.37 791.247 276.33C794.285 273.29 795.995 269.168 796 264.87V259.87C795.997 255.569 794.288 251.445 791.246 248.404C788.205 245.362 784.081 243.653 779.78 243.65H772.38C771.85 243.65 771.341 243.439 770.966 243.064C770.591 242.689 770.38 242.18 770.38 241.65C770.38 241.12 770.591 240.611 770.966 240.236C771.341 239.861 771.85 239.65 772.38 239.65H779.78C785.141 239.655 790.281 241.787 794.072 245.578C797.863 249.369 799.995 254.509 800 259.87V264.87C799.995 270.229 797.864 275.368 794.075 279.158C790.287 282.949 785.149 285.082 779.79 285.09Z" fill="#396E8E"/>
<path d="M652.16 595.6C651.63 595.6 651.121 595.389 650.746 595.014C650.371 594.639 650.16 594.13 650.16 593.6V283.16C650.16 282.63 650.371 282.121 650.746 281.746C651.121 281.371 651.63 281.16 652.16 281.16C652.69 281.16 653.199 281.371 653.574 281.746C653.949 282.121 654.16 282.63 654.16 283.16V593.6C654.16 594.13 653.949 594.639 653.574 595.014C653.199 595.389 652.69 595.6 652.16 595.6Z" fill="#54A4CC"/>
<path d="M658.59 314.89H645.72C642.395 314.89 639.7 317.585 639.7 320.91V329.47C639.7 332.795 642.395 335.49 645.72 335.49H658.59C661.915 335.49 664.61 332.795 664.61 329.47V320.91C664.61 317.585 661.915 314.89 658.59 314.89Z" fill="#396E8E"/>
<path d="M675.4 322.48H628.89C625.565 322.48 622.87 325.175 622.87 328.5V385.86C622.87 389.185 625.565 391.88 628.89 391.88H675.4C678.725 391.88 681.42 389.185 681.42 385.86V328.5C681.42 325.175 678.725 322.48 675.4 322.48Z" fill="#EF3E3B"/>
<path d="M681.42 385.85V328.51C681.42 326.919 680.788 325.393 679.663 324.267C678.537 323.142 677.011 322.51 675.42 322.51H663.31C664.977 329 665.358 335.754 664.43 342.39C663.69 347.62 662.07 358.09 653.59 366.97C648.778 372.045 642.644 375.675 635.88 377.45C631.618 378.421 627.22 378.648 622.88 378.12V385.88C622.88 387.471 623.512 388.997 624.637 390.123C625.763 391.248 627.289 391.88 628.88 391.88H675.38C676.174 391.885 676.961 391.733 677.695 391.432C678.43 391.131 679.097 390.687 679.659 390.126C680.221 389.565 680.666 388.899 680.968 388.165C681.27 387.431 681.424 386.644 681.42 385.85V385.85Z" fill="#C82833"/>
<path d="M775.65 595.6C775.12 595.6 774.611 595.389 774.236 595.014C773.861 594.639 773.65 594.13 773.65 593.6V283.16C773.65 282.63 773.861 282.121 774.236 281.746C774.611 281.371 775.12 281.16 775.65 281.16C776.18 281.16 776.689 281.371 777.064 281.746C777.439 282.121 777.65 282.63 777.65 283.16V593.6C777.65 594.13 777.439 594.639 777.064 595.014C776.689 595.389 776.18 595.6 775.65 595.6Z" fill="#54A4CC"/>
<path d="M782.09 391.99H769.22C765.895 391.99 763.2 394.685 763.2 398.01V406.57C763.2 409.895 765.895 412.59 769.22 412.59H782.09C785.415 412.59 788.11 409.895 788.11 406.57V398.01C788.11 394.685 785.415 391.99 782.09 391.99Z" fill="#396E8E"/>
<path d="M798.89 399.58H752.38C749.055 399.58 746.36 402.275 746.36 405.6V462.96C746.36 466.285 749.055 468.98 752.38 468.98H798.89C802.215 468.98 804.91 466.285 804.91 462.96V405.6C804.91 402.275 802.215 399.58 798.89 399.58Z" fill="#EF3E3B"/>
<path d="M804.91 463V405.6C804.91 404.009 804.278 402.483 803.153 401.357C802.027 400.232 800.501 399.6 798.91 399.6H786.81C788.467 406.092 788.847 412.843 787.93 419.48C787.19 424.71 785.56 435.18 777.08 444.05C773.243 448.254 768.443 451.465 763.093 453.407C757.742 455.35 752 455.965 746.36 455.2V463C746.36 464.591 746.992 466.117 748.117 467.243C749.243 468.368 750.769 469 752.36 469H798.87C799.661 469.005 800.446 468.854 801.178 468.555C801.911 468.256 802.577 467.815 803.139 467.257C803.7 466.699 804.145 466.036 804.449 465.305C804.753 464.575 804.91 463.791 804.91 463V463Z" fill="#C82833"/>
<path d="M719.84 221.81C719.84 217.502 716.348 214.01 712.04 214.01C707.732 214.01 704.24 217.502 704.24 221.81V818.34C704.24 822.648 707.732 826.14 712.04 826.14C716.348 826.14 719.84 822.648 719.84 818.34V221.81Z" fill="#54A4CC"/>
<path d="M920.79 406.15C919.151 407.269 917.603 408.517 916.16 409.88C907.72 417.81 907.26 420.24 896.64 420.88C896.64 420.88 887.56 422.83 894.06 428.95C894.06 428.95 893.79 430.24 891.14 432.9C888.49 435.56 873.34 444.79 894.74 458.85C895.132 459.111 895.456 459.461 895.688 459.871C895.919 460.281 896.051 460.739 896.072 461.209C896.094 461.68 896.004 462.148 895.811 462.577C895.618 463.007 895.326 463.384 894.96 463.68L869.55 480.59L892.32 503.08L930.73 463.53C930.73 463.53 925.73 456.53 925.01 455.75C925.01 455.75 940.62 452.62 935.79 445.75C930.96 438.88 924.79 443.26 924.79 443.26L922.79 440.82L939.24 424.31L920.79 406.15Z" fill="#EA9D7D"/>
<path d="M930.3 465.1L922.61 471.64C922.61 471.64 923.01 462.23 922.77 458.09C922.74 457.56 922.895 457.035 923.208 456.606C923.522 456.178 923.975 455.871 924.49 455.74C929.09 454.54 939.61 451.14 935.79 445.74C931.97 440.34 925.18 443.93 922.38 445.74C922.025 445.967 921.6 446.056 921.184 445.992C920.768 445.927 920.39 445.713 920.12 445.39V445.39C919.855 445.062 919.721 444.646 919.745 444.225C919.769 443.803 919.949 443.406 920.25 443.11L929.89 433.67C931.112 432.442 932.08 430.985 932.736 429.382C933.393 427.779 933.727 426.062 933.717 424.329C933.708 422.597 933.356 420.883 932.682 419.287C932.008 417.691 931.025 416.245 929.79 415.03L923.61 408.95C922.798 408.153 921.716 407.691 920.579 407.654C919.442 407.617 918.332 408.008 917.47 408.75V408.75C919.74 403.61 925.47 402.48 927.38 402.12C939.59 399.87 949.38 410.12 951.56 412.31C957.44 418.42 963.49 429.19 960.19 434.8C959.37 436.2 957.19 439.8 957.19 439.8C957.19 439.8 959.72 444.11 959.37 446.89C958.71 452.04 950.23 456.29 939.72 461.51C934.73 463.9 932 464.81 930.3 465.1Z" fill="#000001"/>
<path d="M921.41 424.28C920.334 423.663 919.362 422.88 918.53 421.96C917.698 421.046 916.973 420.039 916.37 418.96C915.757 417.884 915.283 416.735 914.96 415.54C914.622 414.334 914.517 413.075 914.65 411.83C915.32 412.91 915.84 413.95 916.42 414.96L918.11 417.96C919.317 420.009 920.418 422.118 921.41 424.28Z" fill="#000001"/>
<path d="M914.04 421.85L909.2 426.64" stroke="#000001" stroke-width="3" stroke-miterlimit="10" stroke-linecap="round"/>
<path d="M893.81 439.46C893.86 437.69 892.27 432.62 891.38 432.62L891.14 432.87C889.536 434.194 888.017 435.617 886.59 437.13C888.23 439.74 893.8 439.51 893.81 439.46Z" fill="#BE3E5F"/>
<path d="M929.28 445.23C929.977 445.16 930.68 445.243 931.342 445.473C932.003 445.702 932.607 446.073 933.11 446.56C933.375 446.861 933.56 447.224 933.648 447.616C933.735 448.007 933.722 448.415 933.61 448.8C933.346 449.503 932.892 450.119 932.3 450.58C931.226 451.45 929.972 452.071 928.63 452.4C927.978 452.576 927.305 452.657 926.63 452.64C925.936 452.667 925.258 452.431 924.73 451.98C925.32 452.244 925.982 452.304 926.61 452.15C927.235 452.058 927.846 451.89 928.43 451.65C929.611 451.225 930.712 450.607 931.69 449.82C932.156 449.483 932.522 449.027 932.75 448.5C932.833 448.255 932.857 447.994 932.819 447.738C932.78 447.483 932.681 447.24 932.53 447.03C931.676 446.087 930.533 445.454 929.28 445.23V445.23ZM875.2 484.26C879.38 487.26 901.2 477.35 908.4 472.54C915.6 467.73 913.46 464.74 913.46 464.74C907.4 465.28 895.46 459.44 895.46 459.44C895.954 460.058 896.184 460.846 896.099 461.633C896.015 462.419 895.624 463.141 895.01 463.64L872.34 478.4C872.73 480.81 873.58 483.12 875.2 484.26Z" fill="#D18165"/>
<path d="M923.13 456.73L883.19 494.03L892.32 503.05L930.3 465.1L923.13 456.73Z" fill="#000001"/>
<path d="M922 407.3C921.261 417.112 923.32 426.932 927.94 435.62C935.67 450.39 943.48 431.04 943.48 431.04C943.48 431.04 935.2 402.43 922 407.3Z" fill="#000001"/>
<path d="M459 612.67C460.67 626.72 468.73 638.67 474 642.45C477.72 645.12 479.08 650.05 479.55 652.7C479.847 654.524 480.368 656.304 481.1 658C482.95 662.19 486.78 668.54 492.6 667.44C496.89 666.63 498.87 664.64 502.77 663.02C506.67 661.4 512.44 656.72 512.44 656.72C510.15 649.16 503.03 630.25 506.44 625.5C503.37 624.95 501.06 623.27 498.1 621.58C497.15 621.05 496.21 620.46 495.29 619.86C494.54 619.34 493.8 618.81 493.06 618.26C492.12 617.55 491.18 616.83 490.24 616.05C480.84 608.25 472.39 597.58 465.76 592.22C455.34 583.79 457.34 598.63 459 612.67Z" fill="#EA9D7D"/>
<path d="M785.64 534.39C785.64 534.39 648.31 558.39 636.46 561.39C624.61 564.39 505 625.14 505 625.14C505 625.14 503 645.48 511.85 657.14C511.85 657.14 611.59 626.57 634.85 618.05L677.27 603.5C677.27 603.5 780.09 617.7 798 610.25C806.614 606.655 814.611 601.732 821.7 595.66C821.7 595.66 781.76 555.88 785.64 534.39Z" fill="#25BEEF"/>
<path d="M798 610.24C806.614 606.645 814.611 601.722 821.7 595.65C821.7 595.65 781.7 555.88 785.6 534.39L780.8 535.23C781.055 542.746 779.498 550.213 776.26 557C766.9 576.53 747.19 585 742.51 586.89C718.51 596.45 705.36 584.7 675.45 586.89C670.515 587.358 665.619 588.176 660.8 589.34C639.46 593.646 618.761 600.673 599.21 610.25C581.4 618.64 553.87 635.02 505.41 639.25C506.21 645.25 508 652 511.87 657.09C511.87 657.09 611.61 626.52 634.87 618L674.06 610.84C674.06 610.84 780.13 617.69 798 610.24Z" fill="#1A87C4"/>
<path d="M796.61 518C823.61 491.19 815.49 481.21 838.67 473.48C850.11 469.67 883.19 467.02 889.67 467.27C885.14 471.35 882.3 472.75 881 474.6C879.05 477.37 891.58 479.66 912.58 483.53C911.507 484.951 910.654 486.525 910.05 488.2C909.519 490.078 909.359 492.041 909.58 493.98C910.318 501.555 908.509 509.159 904.44 515.59C901.541 520.195 898.393 524.638 895.01 528.9C886.361 539.504 876.786 549.32 866.4 558.23C856.55 566.55 849.52 570.87 840.35 582.14C835.11 588.58 834.86 590.3 832.5 591.43C825.22 594.92 809.37 587.22 772.35 540.78C771.922 540.242 771.632 539.608 771.505 538.933C771.377 538.258 771.416 537.562 771.618 536.905C771.82 536.248 772.179 535.65 772.663 535.163C773.148 534.676 773.744 534.315 774.4 534.11C785.73 528.67 787.71 526.82 796.61 518Z" fill="#25BEEF"/>
<path d="M795.38 568.49L813.85 587.36C817.299 590.522 821.031 593.361 825 595.84C832.84 591.48 860.08 569.2 861.57 567.26L893.05 526.13C896.77 521.555 898.623 515.744 898.24 509.86C897.65 501.41 893.73 490.86 878.17 489.71L871.36 490.4C861.698 491.392 852.802 496.109 846.56 503.55L820.08 533.73C817.77 535.98 815.72 535.28 815.74 538.5C815.824 539.398 815.668 540.302 815.29 541.12C808.706 550.055 800.728 557.871 791.66 564.27C792.94 565.73 794.18 567.137 795.38 568.49Z" fill="#1A87C4"/>
<path d="M725.65 616.93C727.241 615.973 728.939 615.207 730.71 614.65C745.56 609.96 802.02 591.49 825.37 575.14C832.81 569.93 867.37 532.22 867.37 532.22L849 498.63L806 545.94C804.091 548.037 801.868 549.825 799.41 551.24L723.14 595.08C722.089 595.69 720.913 596.054 719.701 596.146C718.489 596.238 717.271 596.055 716.14 595.61C709.72 593.12 696.75 588.26 694.85 588.97C692.31 589.92 688.38 593.19 702.23 598.38C702.23 598.38 701.16 600.3 696.15 602.17C691.14 604.04 671.72 610.66 671.88 612.38C672.04 614.1 668.45 619.14 694.8 609.93C694.8 609.93 696.8 611.93 694.56 612.75C692.32 613.57 670.78 621.49 673.95 623.52C677.12 625.55 680.03 623.82 697.23 617.71C697.23 617.71 699.23 619.07 698.44 619.71C697.65 620.35 677.57 628.49 678.2 630.18C678.83 631.87 676 635.33 704.58 623C704.58 623 705.37 623.83 702.72 625.79C700.07 627.75 688.29 635.86 692.26 636.15C696.23 636.44 696.4 635.57 709.98 625.82L725.65 616.9V616.93Z" fill="#EA9D7D"/>
<path d="M847.82 555.57C848.262 555.916 848.769 556.171 849.31 556.321C849.851 556.472 850.416 556.513 850.974 556.445C851.531 556.376 852.069 556.198 852.558 555.921C853.046 555.644 853.475 555.273 853.82 554.83L884.82 514.51L884.9 514.38C892.9 502.84 883.6 487.23 869.64 488.66L864.83 489.15C856.025 490.057 847.921 494.362 842.24 501.15L817.91 530.15C817.792 530.295 817.704 530.462 817.651 530.641C817.598 530.82 817.58 531.008 817.6 531.194C817.619 531.379 817.675 531.56 817.765 531.724C817.854 531.888 817.975 532.033 818.12 532.15L847.82 555.57Z" fill="#25BEEF"/>
<path d="M884.8 514.3C885.839 512.344 886.517 510.217 886.8 508.02C887.061 505.9 886.884 503.749 886.28 501.7C885.119 497.673 882.436 494.255 878.8 492.17C877.034 491.14 875.072 490.489 873.04 490.26L872.28 490.15C872.02 490.13 871.76 490.13 871.5 490.15H869.95L866.58 490.4L864.89 490.53L863.27 490.69C862.18 490.83 861.11 491.03 860.04 491.24C857.884 491.685 855.775 492.331 853.74 493.17C849.577 494.869 845.891 497.556 843 501C840.15 504.49 837.62 508.3 834.85 511.89C832.08 515.48 829.09 518.89 826.06 522.24C824.54 523.93 823 525.59 821.41 527.24C820.63 528.06 819.82 528.86 819.02 529.67C818.65 530.08 818.11 530.46 817.96 530.79C817.866 531.008 817.839 531.248 817.882 531.481C817.924 531.714 818.035 531.93 818.2 532.1L818.02 532.34C817.735 532.157 817.513 531.891 817.383 531.579C817.252 531.266 817.22 530.921 817.29 530.59C817.371 530.265 817.521 529.961 817.73 529.7L818.22 528.99C818.87 528.06 819.51 527.12 820.22 526.21C821.553 524.37 822.913 522.557 824.3 520.77C827.09 517.19 829.92 513.66 832.97 510.3C836.02 506.94 839.29 503.79 842.3 500.38C845.381 496.934 848.993 494.004 853 491.7C855.031 490.543 857.18 489.608 859.41 488.91C860.537 488.569 861.682 488.289 862.84 488.07C864 487.86 865.16 487.71 866.27 487.58C867.38 487.45 868.5 487.28 869.65 487.16L871.5 487.07C871.81 487.07 872.12 487.02 872.43 487.07L873.35 487.16C875.826 487.374 878.22 488.15 880.35 489.43C882.465 490.699 884.287 492.403 885.696 494.428C887.104 496.454 888.067 498.755 888.52 501.18C888.61 501.78 888.72 502.38 888.78 502.98V504.79C888.775 505.391 888.715 505.99 888.6 506.58C888.536 507.173 888.415 507.759 888.24 508.33C888.06 508.9 887.89 509.47 887.7 510.03C887.51 510.59 887.18 511.09 886.92 511.61L886.52 512.39L886.02 513.1L885.02 514.49L884.8 514.3Z" fill="#1A87C4"/>
<path d="M605.28 103.79H150.24V453.71H605.28V103.79Z" fill="#C9EFFB"/>
<path d="M605.28 341C592.7 337.55 571.14 333.82 531.83 329.69C420.94 318.05 399.7 327.51 361.91 308.09C315.91 284.45 293 242.49 285.59 228.89C257.73 177.81 263.39 135.3 258.11 103.75H150.24V453.71H605.24L605.28 341Z" fill="#A8E5F9"/>
<path d="M608.11 97.45H148.33C146.808 97.45 145.348 98.0548 144.271 99.1312C143.195 100.208 142.59 101.668 142.59 103.19V454.57C142.59 456.092 143.195 457.552 144.271 458.629C145.348 459.705 146.808 460.31 148.33 460.31H608.11C609.632 460.31 611.092 459.705 612.169 458.629C613.245 457.552 613.85 456.092 613.85 454.57V103.19C613.85 101.668 613.245 100.208 612.169 99.1312C611.092 98.0548 609.632 97.45 608.11 97.45V97.45ZM596 441.22C596 442.628 595.441 443.979 594.445 444.975C593.449 445.971 592.098 446.53 590.69 446.53H165.79C165.093 446.53 164.403 446.393 163.759 446.126C163.116 445.859 162.531 445.467 162.039 444.974C161.547 444.481 161.156 443.895 160.891 443.251C160.625 442.607 160.489 441.917 160.49 441.22V116.53C160.49 115.834 160.627 115.145 160.893 114.502C161.16 113.859 161.55 113.274 162.042 112.782C162.535 112.29 163.119 111.9 163.762 111.633C164.405 111.367 165.094 111.23 165.79 111.23H590.65C591.347 111.229 592.037 111.365 592.681 111.631C593.325 111.896 593.911 112.287 594.404 112.779C594.897 113.271 595.289 113.856 595.556 114.499C595.823 115.143 595.96 115.833 595.96 116.53L596 441.22Z" fill="#87DBF6"/>
<path d="M454.22 110.84H449.22V446.53H454.22V110.84Z" fill="#87DBF6"/>
<path d="M307.24 110.84H302.24V446.53H307.24V110.84Z" fill="#87DBF6"/>
<path d="M595.96 349.87H160.49V354.87H595.96V349.87Z" fill="#87DBF6"/>
<path d="M595.96 202.89H160.49V207.89H595.96V202.89Z" fill="#87DBF6"/>
<path d="M828 230.66V350.21C828 351.271 828.421 352.288 829.172 353.038C829.922 353.789 830.939 354.21 832 354.21H961.76C962.821 354.21 963.838 353.789 964.588 353.038C965.339 352.288 965.76 351.271 965.76 350.21V230.66C965.76 229.599 965.339 228.582 964.588 227.832C963.838 227.081 962.821 226.66 961.76 226.66H832C830.939 226.66 829.922 227.081 829.172 227.832C828.421 228.582 828 229.599 828 230.66ZM950.57 343.85H843.17C842.109 343.85 841.092 343.429 840.342 342.678C839.591 341.928 839.17 340.911 839.17 339.85V241C839.17 239.939 839.591 238.922 840.342 238.172C841.092 237.421 842.109 237 843.17 237H950.57C951.631 237 952.648 237.421 953.398 238.172C954.149 238.922 954.57 239.939 954.57 241V339.83C954.573 340.357 954.471 340.879 954.271 341.367C954.071 341.854 953.777 342.298 953.406 342.671C953.034 343.045 952.592 343.341 952.105 343.544C951.619 343.746 951.097 343.85 950.57 343.85Z" fill="#454851"/>
<path d="M951.57 237.02H842.17C840.513 237.02 839.17 238.363 839.17 240.02V340.85C839.17 342.507 840.513 343.85 842.17 343.85H951.57C953.227 343.85 954.57 342.507 954.57 340.85V240.02C954.57 238.363 953.227 237.02 951.57 237.02Z" fill="#E3EAF3"/>
<path d="M912.9 263.68C912.614 263.389 912.273 263.158 911.897 263C911.521 262.843 911.118 262.761 910.71 262.761C910.302 262.761 909.899 262.843 909.523 263C909.147 263.158 908.806 263.389 908.52 263.68C906.22 266.01 886.1 286.91 886.1 299.68C886.1 306.207 888.693 312.467 893.308 317.082C897.923 321.697 904.183 324.29 910.71 324.29C917.237 324.29 923.497 321.697 928.112 317.082C932.727 312.467 935.32 306.207 935.32 299.68C935.32 286.92 915.2 266.02 912.9 263.68V263.68ZM876.16 257.68C875.87 257.333 875.507 257.055 875.098 256.863C874.688 256.672 874.242 256.573 873.79 256.573C873.338 256.573 872.892 256.672 872.482 256.863C872.073 257.055 871.71 257.333 871.42 257.68C869.27 260.3 858.42 273.68 858.42 281.19C858.522 285.202 860.188 289.016 863.062 291.818C865.936 294.62 869.791 296.188 873.805 296.188C877.819 296.188 881.674 294.62 884.548 291.818C887.422 289.016 889.088 285.202 889.19 281.19C889.19 273.66 878.32 260.3 876.19 257.68H876.16Z" fill="#EF3E3B"/>
<path d="M872.43 297C870.29 297 868.171 296.578 866.194 295.759C864.217 294.94 862.421 293.739 860.908 292.225C859.395 290.712 858.195 288.915 857.377 286.937C856.559 284.959 856.139 282.84 856.14 280.7C856.14 272.7 867.64 258.58 869.92 255.81C870.224 255.441 870.606 255.144 871.038 254.941C871.47 254.737 871.942 254.631 872.42 254.631C872.898 254.631 873.37 254.737 873.802 254.941C874.234 255.144 874.616 255.441 874.92 255.81C877.19 258.58 888.7 272.72 888.7 280.7C888.703 285.019 886.99 289.162 883.939 292.218C880.888 295.275 876.749 296.995 872.43 297V297ZM872.43 263.12C867.77 269.2 862.65 277.22 862.65 280.7C862.608 282.01 862.83 283.315 863.302 284.538C863.775 285.76 864.488 286.875 865.4 287.817C866.312 288.758 867.403 289.507 868.61 290.018C869.817 290.529 871.114 290.793 872.425 290.793C873.736 290.793 875.033 290.529 876.24 290.018C877.447 289.507 878.538 288.758 879.45 287.817C880.362 286.875 881.075 285.76 881.548 284.538C882.02 283.315 882.242 282.01 882.2 280.7C882.2 277.19 877.09 269.2 872.43 263.12ZM911.53 326.32C904.618 326.32 897.988 323.575 893.099 318.688C888.21 313.801 885.463 307.172 885.46 300.26C885.46 286.74 906.77 264.6 909.21 262.13C909.515 261.825 909.876 261.583 910.274 261.419C910.672 261.254 911.099 261.169 911.53 261.169C911.961 261.169 912.388 261.254 912.786 261.419C913.184 261.583 913.545 261.825 913.85 262.13C916.29 264.6 937.6 286.74 937.6 300.26C937.597 307.172 934.85 313.801 929.961 318.688C925.072 323.575 918.442 326.32 911.53 326.32V326.32ZM911.53 269.13C904.53 276.76 891.98 291.94 891.98 300.26C891.98 305.445 894.04 310.418 897.706 314.084C901.372 317.75 906.345 319.81 911.53 319.81C916.715 319.81 921.688 317.75 925.354 314.084C929.02 310.418 931.08 305.445 931.08 300.26C931.08 292.04 918.57 276.76 911.53 269.13V269.13Z" fill="#C82833"/>
<path d="M941.21 549.63C941.213 548.526 941.653 547.468 942.435 546.688C943.217 545.908 944.276 545.47 945.38 545.47H1069.47V826.32H945.38C944.274 826.32 943.213 825.881 942.431 825.099C941.649 824.317 941.21 823.256 941.21 822.15V549.63Z" fill="#A04833"/>
<path d="M1069.47 545.46V826.32H1100.56C1101.66 826.317 1102.72 825.877 1103.5 825.095C1104.28 824.313 1104.72 823.254 1104.72 822.15V549.63C1104.72 548.526 1104.28 547.467 1103.5 546.685C1102.72 545.903 1101.66 545.463 1100.56 545.46H1069.47Z" fill="#843A2C"/>
<path d="M1048.43 560.74H951.01C948.707 560.74 946.84 562.607 946.84 564.91V595.57C946.84 597.873 948.707 599.74 951.01 599.74H1048.43C1050.73 599.74 1052.6 597.873 1052.6 595.57V564.91C1052.6 562.607 1050.73 560.74 1048.43 560.74Z" fill="#EA8826"/>
<path d="M1059.68 560.74H1048.43C1049.53 560.74 1050.59 561.178 1051.38 561.958C1052.16 562.738 1052.6 563.796 1052.6 564.9V595.57C1052.6 596.676 1052.16 597.737 1051.38 598.519C1050.6 599.301 1049.54 599.74 1048.43 599.74H1059.68C1060.79 599.74 1061.85 599.301 1062.63 598.519C1063.41 597.737 1063.85 596.676 1063.85 595.57V564.9C1063.85 563.796 1063.41 562.738 1062.63 561.958C1061.84 561.178 1060.78 560.74 1059.68 560.74Z" fill="#CC7829"/>
<path d="M999.72 586.92C1003.41 586.92 1006.4 583.929 1006.4 580.24C1006.4 576.551 1003.41 573.56 999.72 573.56C996.031 573.56 993.04 576.551 993.04 580.24C993.04 583.929 996.031 586.92 999.72 586.92Z" fill="#843A2C"/>
<path d="M1048.43 613.57H951.01C948.707 613.57 946.84 615.437 946.84 617.74V648.4C946.84 650.703 948.707 652.57 951.01 652.57H1048.43C1050.73 652.57 1052.6 650.703 1052.6 648.4V617.74C1052.6 615.437 1050.73 613.57 1048.43 613.57Z" fill="#EA8826"/>
<path d="M1059.68 613.57H1048.43C1049.53 613.57 1050.59 614.008 1051.38 614.788C1052.16 615.568 1052.6 616.626 1052.6 617.73V648.4C1052.6 649.506 1052.16 650.567 1051.38 651.349C1050.6 652.131 1049.54 652.57 1048.43 652.57H1059.68C1060.79 652.57 1061.85 652.131 1062.63 651.349C1063.41 650.567 1063.85 649.506 1063.85 648.4V617.73C1063.85 616.626 1063.41 615.568 1062.63 614.788C1061.84 614.008 1060.78 613.57 1059.68 613.57V613.57Z" fill="#CC7829"/>
<path d="M999.72 639.75C1003.41 639.75 1006.4 636.759 1006.4 633.07C1006.4 629.381 1003.41 626.39 999.72 626.39C996.031 626.39 993.04 629.381 993.04 633.07C993.04 636.759 996.031 639.75 999.72 639.75Z" fill="#843A2C"/>
<path d="M1048.43 666.39H951.01C948.707 666.39 946.84 668.257 946.84 670.56V701.22C946.84 703.523 948.707 705.39 951.01 705.39H1048.43C1050.73 705.39 1052.6 703.523 1052.6 701.22V670.56C1052.6 668.257 1050.73 666.39 1048.43 666.39Z" fill="#EA8826"/>
<path d="M1059.68 666.39H1048.43C1049.54 666.39 1050.6 666.829 1051.38 667.611C1052.16 668.393 1052.6 669.454 1052.6 670.56V701.23C1052.6 702.336 1052.16 703.397 1051.38 704.179C1050.6 704.961 1049.54 705.4 1048.43 705.4H1059.68C1060.79 705.4 1061.85 704.961 1062.63 704.179C1063.41 703.397 1063.85 702.336 1063.85 701.23V670.56C1063.85 669.454 1063.41 668.393 1062.63 667.611C1061.85 666.829 1060.79 666.39 1059.68 666.39Z" fill="#CC7829"/>
<path d="M999.72 692.58C1003.41 692.58 1006.4 689.589 1006.4 685.9C1006.4 682.211 1003.41 679.22 999.72 679.22C996.031 679.22 993.04 682.211 993.04 685.9C993.04 689.589 996.031 692.58 999.72 692.58Z" fill="#843A2C"/>
<path d="M1048.43 719.22H951.01C948.707 719.22 946.84 721.087 946.84 723.39V754.05C946.84 756.353 948.707 758.22 951.01 758.22H1048.43C1050.73 758.22 1052.6 756.353 1052.6 754.05V723.39C1052.6 721.087 1050.73 719.22 1048.43 719.22Z" fill="#EA8826"/>
<path d="M1059.68 719.22H1048.43C1049.54 719.22 1050.6 719.659 1051.38 720.441C1052.16 721.223 1052.6 722.284 1052.6 723.39V754.06C1052.6 755.166 1052.16 756.227 1051.38 757.009C1050.6 757.791 1049.54 758.23 1048.43 758.23H1059.68C1060.79 758.23 1061.85 757.791 1062.63 757.009C1063.41 756.227 1063.85 755.166 1063.85 754.06V723.39C1063.85 722.284 1063.41 721.223 1062.63 720.441C1061.85 719.659 1060.79 719.22 1059.68 719.22Z" fill="#CC7829"/>
<path d="M999.72 745.4C1003.41 745.4 1006.4 742.409 1006.4 738.72C1006.4 735.031 1003.41 732.04 999.72 732.04C996.031 732.04 993.04 735.031 993.04 738.72C993.04 742.409 996.031 745.4 999.72 745.4Z" fill="#843A2C"/>
<path d="M1048.43 772.05H951.01C948.707 772.05 946.84 773.917 946.84 776.22V806.88C946.84 809.183 948.707 811.05 951.01 811.05H1048.43C1050.73 811.05 1052.6 809.183 1052.6 806.88V776.22C1052.6 773.917 1050.73 772.05 1048.43 772.05Z" fill="#EA8826"/>
<path d="M1059.68 772.05H1048.43C1049.54 772.05 1050.6 772.489 1051.38 773.271C1052.16 774.053 1052.6 775.114 1052.6 776.22V806.89C1052.6 807.994 1052.16 809.052 1051.38 809.832C1050.59 810.612 1049.53 811.05 1048.43 811.05H1059.68C1060.78 811.05 1061.84 810.612 1062.63 809.832C1063.41 809.052 1063.85 807.994 1063.85 806.89V776.22C1063.85 775.114 1063.41 774.053 1062.63 773.271C1061.85 772.489 1060.79 772.05 1059.68 772.05V772.05Z" fill="#CC7829"/>
<path d="M999.72 798.23C1003.41 798.23 1006.4 795.239 1006.4 791.55C1006.4 787.861 1003.41 784.87 999.72 784.87C996.031 784.87 993.04 787.861 993.04 791.55C993.04 795.239 996.031 798.23 999.72 798.23Z" fill="#843A2C"/>
<path d="M194.5 759.34C186.06 702.59 199.15 633.11 199.29 632.41L203.21 633.16C203.08 633.85 190.12 702.68 198.46 758.76L194.5 759.34ZM188.81 759.17L184.81 758.93C187.67 712.55 178.98 709.26 178.89 709.23H179.1L179.41 705.23C181.53 705.44 191.92 708.8 188.81 759.17ZM203.24 751.07L199.24 750.67C204.38 699.32 209.24 698.17 211.35 697.67C211.957 697.531 212.592 697.585 213.167 697.823C213.742 698.061 214.229 698.473 214.56 699L211.18 701.14C211.248 701.253 211.339 701.35 211.448 701.424C211.557 701.498 211.68 701.548 211.81 701.57C212.033 701.628 212.27 701.595 212.47 701.48C211.72 702 207.65 707 203.24 751.07Z" fill="#2E6821"/>
<path d="M217 826.06H160.19C156.647 826.059 153.222 824.786 150.537 822.474C147.853 820.162 146.087 816.964 145.56 813.46L135.56 746.82C134.86 742.2 168.83 745.82 189.63 745.66C209.22 745.46 241.24 743.66 240.9 745.95L231.58 813.46C231.057 816.956 229.298 820.149 226.624 822.46C223.949 824.772 220.535 826.049 217 826.06V826.06Z" fill="#ABBCCA"/>
<path d="M188.22 745.67C167.43 745.88 134.86 742.2 135.56 746.82L145.56 813.46C146.087 816.964 147.853 820.162 150.537 822.474C153.222 824.786 156.647 826.059 160.19 826.06H182.65C176.76 819.549 173.468 811.1 173.4 802.32C173.4 800.5 173.62 788.81 182.11 779.48C187.18 773.91 195.41 771.06 211.86 765.36C219.76 762.62 226.08 761.23 232.86 755.44C235.744 753.136 238.354 750.508 240.64 747.61L240.87 745.95C241.24 743.63 207.82 745.48 188.22 745.67Z" fill="#91A6B5"/>
<path d="M167.45 768.63C167.45 768.63 168.21 765.63 169.93 759.45C171.401 754.361 173.658 749.532 176.62 745.14C180.88 738.82 183.38 738.48 183.96 734.28C184.252 731.464 183.946 728.619 183.06 725.93C182.06 722.83 180.97 722.17 180.93 719.79C180.88 717.24 182.07 715.27 183.3 713.2C185.67 709.2 186.99 709.68 187.88 707.2C188.98 704.07 187.78 700.9 186.64 697.87C185.2 694.07 183.69 694.31 183.11 691.54C182.2 687.16 184.81 683.17 185 682.9C186.85 680.14 188.67 680.11 189.45 677.8C190.23 675.49 188.92 672.8 188.45 671.71C187.45 669.43 186.4 668.86 186.45 667.09C186.503 665.869 186.956 664.698 187.74 663.76C189.3 661.76 190.94 662.27 192.28 660.86C194.44 658.57 193.17 654.09 192.78 652.69C191.78 649.15 190.36 649.15 188.1 644.33C186.75 641.44 185.83 639.48 185.69 636.73C185.49 632.87 187.02 631.52 186.06 628.83C185.45 627.13 183.77 624.67 181.89 624.5C175.5 623.92 165.08 649.64 165.08 649.64C163.726 647.809 162.65 645.787 161.89 643.64C158.67 635.08 158.95 631.83 155.89 626.41C154.76 624.41 152.21 619.84 149.98 620.24C148.04 620.59 147.15 624.51 146.4 627.81C144.97 634.12 146.4 635.86 144.5 639.01C143.81 640.18 141.84 641.6 137.93 644.4C131.08 649.29 130.15 649.3 128.99 651.27C126.24 655.97 128.31 661.5 128.46 661.89C129.666 664.54 131.601 666.791 134.04 668.38C132.13 668.644 130.328 669.426 128.83 670.64C126.68 672.52 125.83 676.26 127.19 678.08C128.11 679.34 129.37 678.76 130.87 680.36C131.885 681.485 132.466 682.935 132.51 684.45C132.45 687.11 130.25 687.61 130.12 690.38C130.07 691.864 130.573 693.315 131.53 694.45C133.02 696.02 134.53 695.21 136.14 696.85C137.163 697.92 137.766 699.322 137.84 700.8C137.84 702.62 136.84 702.98 137.03 704.53C137.355 705.894 138.203 707.075 139.39 707.82C140.96 708.92 141.82 708.44 142.69 709.34C143.56 710.24 143.54 711.98 143.21 714.34C142.53 719.41 142.04 720.34 141.82 722.48C141.438 726.071 142.079 729.698 143.67 732.94C145.19 735.86 146.22 735.5 148.79 739.71C149.955 741.679 150.958 743.739 151.79 745.87C152.858 748.459 153.776 751.106 154.54 753.8C157.08 761.73 167.45 768.63 167.45 768.63Z" fill="#3C8F2D"/>
<path d="M186.08 639.44C185.168 641.186 183.884 642.712 182.32 643.91C177.32 647.91 167.32 655.77 164.39 658.11C164.86 653.52 165.33 650.18 165.63 648.18L165.03 649.61C165.03 649.61 164.88 649.42 164.62 649.05C164.2 651.93 163.62 656.66 163.04 663.1C152.52 663.67 147.22 644.1 145.49 635.96C145.422 636.646 145.257 637.32 145 637.96C147.08 647.02 152.46 664.46 163 664.02C162.89 665.43 162.77 666.91 162.66 668.47C148.66 675.85 136.48 669.67 132.07 666.85C132.694 667.417 133.363 667.932 134.07 668.39C134.07 668.39 133.74 668.39 133.23 668.55C138.07 671.27 147.55 675.03 158.56 671.22C159.933 670.735 161.269 670.153 162.56 669.48C162.35 672.77 162.15 676.38 162 680.3C157.15 688.88 142.72 695.23 136.71 697.57C136.89 697.812 137.047 698.069 137.18 698.34C143.06 696.06 156.33 690.22 161.94 682.04C161.827 685.327 161.753 688.823 161.72 692.53C148.65 709.22 143.59 719.21 141.72 724.88C141.738 725.737 141.808 726.592 141.93 727.44C143.03 722.68 147.17 712.7 161.72 693.97C161.72 696.17 161.72 698.447 161.72 700.8C161.72 700.8 161.72 700.8 161.72 700.9C161.78 706.42 161.95 712.297 162.23 718.53C162.23 718.61 162.59 726.46 156.16 735.3C153.74 738.642 152.35 742.618 152.16 746.74C152.48 747.54 152.76 748.28 153.01 748.96C152.769 744.269 154.13 739.636 156.87 735.82C159.566 732.191 161.492 728.05 162.53 723.65C163.3 737.11 164.7 752.08 167.02 768.35L167.48 768.67L167.78 767.51C164.782 746.501 163.076 725.328 162.67 704.11C164.88 711.11 171.18 727.68 183.67 735.76C183.762 735.465 183.836 735.164 183.89 734.86C169 725 163.16 703 162.59 700.75C162.59 696.67 162.59 692.75 162.59 689.12C165.543 693.083 169.374 696.309 173.783 698.544C178.191 700.778 183.058 701.961 188 702C187.93 701.71 187.86 701.41 187.77 701.12C171.12 700.52 163.55 689.12 162.67 687.63C162.77 682.25 162.97 677.34 163.22 672.94C165.45 673.94 173.28 676.67 184.22 672.87C185.582 672.399 186.917 671.855 188.22 671.24C188.08 670.96 187.95 670.71 187.81 670.47C174.42 676.72 164.95 672.81 163.27 672C163.56 667.14 163.91 662.91 164.27 659.35C165.81 658.13 177.33 648.97 182.87 644.63C184.301 643.527 185.518 642.171 186.46 640.63C186.31 640.22 186.19 639.83 186.08 639.44Z" fill="#91DC4F"/>
<path d="M265 755.45C265 755.45 264.46 753.07 263.48 748.19C262.695 744.134 262.553 739.98 263.06 735.88C263.78 729.98 265.4 728.88 264.31 725.74C263.52 723.682 262.304 721.814 260.74 720.26C258.94 718.46 257.96 718.38 257.08 716.74C256.2 715.1 256.27 713.2 256.4 711.32C256.64 707.74 257.72 707.57 257.4 705.52C257.06 702.95 255.11 701.17 253.24 699.52C250.9 697.39 249.93 698.09 248.55 696.37C247.173 694.431 246.551 692.055 246.8 689.69C247.11 687.12 248.37 686.46 248.09 684.58C247.81 682.7 245.96 681.29 245.24 680.7C243.73 679.48 242.8 679.45 242.18 678.22C241.788 677.352 241.69 676.379 241.9 675.45C242.28 673.51 243.6 673.28 244.03 671.82C244.72 669.47 242.25 666.82 241.48 665.97C239.53 663.86 238.55 664.37 235.27 661.81C233.27 660.28 231.98 659.25 230.91 657.39C229.4 654.77 229.99 653.29 228.37 651.77C227.37 650.77 225.31 649.69 223.94 650.24C219.29 652.1 221.16 673.65 221.16 673.65C219.573 672.87 218.111 671.859 216.82 670.65C211.55 665.84 210.6 663.48 206.57 660.79C205.07 659.79 201.69 657.53 200.28 658.6C199.06 659.53 199.82 662.6 200.47 665.12C201.71 670.01 203.29 670.73 203.12 673.58C203.05 674.64 202.19 676.32 200.46 679.65C197.46 685.47 196.78 685.81 196.68 687.58C196.43 691.83 199.82 694.94 200.06 695.15C201.838 696.565 203.981 697.445 206.24 697.69C205.008 698.549 204.033 699.728 203.42 701.1C202.59 703.17 203.35 706.1 204.92 706.85C206 707.41 206.67 706.55 208.28 707.14C209.389 707.553 210.31 708.357 210.87 709.4C211.77 711.27 210.41 712.4 211.31 714.4C211.794 715.45 212.654 716.282 213.72 716.73C215.32 717.29 216.04 716.22 217.72 716.73C218.814 717.106 219.735 717.866 220.31 718.87C220.96 720.13 220.36 720.76 221.06 721.75C221.768 722.581 222.773 723.102 223.86 723.2C225.34 723.41 225.77 722.77 226.69 723.09C227.61 723.41 228.22 724.62 228.84 726.4C230.16 730.17 230.16 731.01 230.75 732.55C231.767 735.177 233.499 737.466 235.75 739.16C237.84 740.65 238.43 740.04 241.7 742.05C243.216 743.004 244.65 744.081 245.99 745.27C247.643 746.691 249.215 748.204 250.7 749.8C255.36 754.33 265 755.45 265 755.45Z" fill="#3C8F2D"/>
<path d="M232.24 659.09C232.228 660.624 231.887 662.138 231.24 663.53C229.14 668.05 225.01 677.07 223.8 679.74C222.51 676.38 221.65 673.9 221.15 672.39C221.15 673.16 221.24 673.6 221.24 673.6L220.75 673.36C221.48 675.51 222.75 679.01 224.63 683.68C217.52 687.8 206.9 676.05 202.83 671.04C203.02 671.531 203.141 672.046 203.19 672.57C207.83 678.12 217.74 688.34 224.89 684.32C225.3 685.32 225.75 686.41 226.23 687.53C219.14 697.6 208.46 697.63 204.4 697.23C205.029 697.405 205.671 697.528 206.32 697.6C206.137 697.728 205.96 697.864 205.79 698.01C209.21 698.211 212.633 697.68 215.831 696.454C219.03 695.228 221.931 693.335 224.34 690.9C225.132 690.07 225.867 689.188 226.54 688.26C227.54 690.62 228.69 693.2 229.97 695.97C229.64 703.66 221.86 713.17 218.51 716.92C218.717 717.032 218.917 717.155 219.11 717.29C222.39 713.63 229.54 704.88 230.55 697.2C231.64 699.53 232.82 701.99 234.11 704.57C230.93 720.8 230.95 729.57 231.65 734.13C231.945 734.721 232.279 735.293 232.65 735.84C231.73 732.15 231.07 723.74 234.56 705.57C235.327 707.11 236.137 708.69 236.99 710.31L237.05 710.37C239.05 714.183 241.247 718.207 243.64 722.44C243.64 722.44 246.7 727.82 245.36 736.24C244.862 739.416 245.3 742.669 246.62 745.6C247.13 746.04 247.62 746.46 248 746.85C246.161 743.675 245.456 739.969 246 736.34C246.593 732.868 246.464 729.31 245.62 725.89C250.93 734.97 257.2 744.89 264.57 755.36L265 755.42L264.8 754.51C255.275 740.973 246.592 726.863 238.8 712.26C242.8 716.38 253.05 725.62 264.59 726.82C264.555 726.583 264.501 726.349 264.43 726.12C250.65 724.57 238.77 711.32 237.59 709.97C236.117 707.15 234.753 704.453 233.5 701.88C236.945 703.591 240.739 704.481 244.585 704.481C248.431 704.481 252.225 703.591 255.67 701.88C255.52 701.7 255.36 701.52 255.2 701.35C251.731 703.066 247.899 703.917 244.03 703.832C240.161 703.747 236.37 702.727 232.98 700.86C231.15 697.09 229.56 693.6 228.17 690.46C230.07 690.35 236.48 689.46 242.75 682.97C243.49 682.2 244.22 681.35 244.95 680.42C244.75 680.28 244.57 680.15 244.39 680.04C237.29 689.12 229.33 689.75 227.88 689.79C226.36 686.3 225.11 683.24 224.09 680.64C224.73 679.25 229.49 668.81 231.8 663.83C232.403 662.574 232.772 661.218 232.89 659.83C232.67 659.55 232.45 659.32 232.24 659.09Z" fill="#91DC4F"/>
<path d="M267.85 700.07C267.85 700.07 267.12 697.07 265.79 690.79C264.721 685.601 264.478 680.275 265.07 675.01C265.9 667.43 267.97 666.01 266.52 662.01C265.48 659.373 263.892 656.987 261.86 655.01C259.52 652.72 258.26 652.64 257.12 650.55C255.98 648.46 256.02 646.02 256.12 643.61C256.38 639.02 257.76 638.79 257.37 636.15C256.89 632.86 254.37 630.61 251.94 628.46C248.94 625.76 247.68 626.68 245.88 624.46C243.05 621.01 243.51 616.26 243.54 615.93C243.9 612.63 245.54 611.75 245.12 609.35C244.7 606.95 242.33 605.16 241.4 604.42C239.46 602.87 238.26 602.85 237.45 601.28C236.926 600.174 236.782 598.926 237.04 597.73C237.51 595.25 239.19 594.93 239.72 593.05C240.57 590.05 237.37 586.64 236.37 585.59C233.84 582.91 232.59 583.59 228.37 580.35C225.83 578.42 224.11 577.11 222.71 574.74C220.71 571.41 221.47 569.51 219.37 567.57C218.05 566.35 215.37 564.95 213.67 565.67C207.74 568.13 210.45 595.74 210.45 595.74C208.401 594.748 206.51 593.457 204.84 591.91C198.02 585.82 196.75 582.81 191.55 579.41C189.61 578.15 185.25 575.31 183.45 576.7C181.9 577.91 182.93 581.79 183.8 585.06C185.46 591.32 187.49 592.21 187.31 595.87C187.25 597.22 186.16 599.4 183.99 603.68C180.2 611.2 179.38 611.68 179.27 613.92C179.01 619.37 183.41 623.3 183.72 623.57C186.03 625.368 188.806 626.468 191.72 626.74C190.151 627.858 188.917 629.383 188.15 631.15C187.15 633.81 188.15 637.51 190.15 638.51C191.55 639.2 192.4 638.1 194.46 638.82C195.886 639.336 197.077 640.352 197.81 641.68C199 644.06 197.28 645.53 198.46 648.04C199.093 649.383 200.212 650.437 201.59 650.99C203.64 651.69 204.59 650.29 206.78 650.99C208.188 651.463 209.378 652.429 210.13 653.71C210.98 655.31 210.22 656.12 211.13 657.39C212.05 658.443 213.346 659.092 214.74 659.2C216.64 659.45 217.18 658.63 218.37 659.02C219.72 659.46 220.37 660.96 221.17 663.23C222.92 668.04 222.94 669.12 223.72 671.09C225.049 674.446 227.298 677.357 230.21 679.49C232.92 681.37 233.66 680.58 237.89 683.11C239.842 684.314 241.694 685.671 243.43 687.17C245.569 688.971 247.609 690.888 249.54 692.91C255.46 698.77 267.85 700.07 267.85 700.07Z" fill="#7BCE34"/>
<path d="M224.39 577C224.389 578.969 223.959 580.914 223.13 582.7C220.5 588.53 215.35 600.16 213.83 603.6C212.13 599.31 210.99 596.14 210.33 594.22C210.41 595.22 210.46 595.77 210.46 595.77C210.46 595.77 210.23 595.67 209.84 595.47C210.84 598.21 212.46 602.69 214.96 608.65C205.91 614.03 192.12 599.13 186.82 592.76C187.07 593.402 187.231 594.075 187.3 594.76C193.3 601.82 206.2 614.76 215.3 609.51C215.85 610.81 216.44 612.18 217.06 613.61C208.13 626.61 194.43 626.83 189.22 626.37C190.03 626.585 190.856 626.736 191.69 626.82C191.456 626.983 191.233 627.16 191.02 627.35C196.57 627.51 206.71 626.44 214.7 617.95C215.703 616.88 216.628 615.741 217.47 614.54C218.8 617.54 220.31 620.84 222 624.38C221.68 634.23 211.84 646.55 207.61 651.38C207.88 651.52 208.141 651.677 208.39 651.85C212.53 647.1 221.57 635.77 222.75 625.92C224.183 628.893 225.743 632.023 227.43 635.31C223.59 656.16 223.75 667.36 224.72 673.25C225.128 674.006 225.585 674.735 226.09 675.43C224.85 670.7 223.88 659.93 228.09 636.59C229.09 638.59 230.17 640.59 231.28 642.59L231.35 642.66C233.96 647.52 236.83 652.66 239.98 658.04C239.98 658.1 243.98 664.89 242.39 675.71C241.792 679.796 242.404 683.968 244.15 687.71C244.81 688.27 245.4 688.8 245.93 689.29C243.537 685.244 242.591 680.504 243.25 675.85C243.96 671.387 243.742 666.825 242.61 662.45C249.55 674.02 257.74 686.62 267.34 699.96L267.9 700.03L267.63 698.87C255.208 681.652 243.854 663.688 233.63 645.08C238.86 650.3 252.11 662 266.92 663.36C266.867 663.06 266.797 662.762 266.71 662.47C249 660.72 233.57 643.92 232 642.2C230.073 638.6 228.283 635.16 226.63 631.88C231.078 634.01 235.959 635.084 240.891 635.016C245.822 634.948 250.672 633.742 255.06 631.49C254.87 631.26 254.66 631.04 254.45 630.82C239.45 638.02 227.45 631.39 225.95 630.52C223.55 625.71 221.45 621.27 219.63 617.25C222.05 617.09 230.27 615.89 238.21 607.44C239.191 606.387 240.119 605.286 240.99 604.14C240.73 603.95 240.5 603.79 240.27 603.65C231.27 615.4 221.1 616.33 219.27 616.4C217.27 611.95 215.62 608.04 214.27 604.73C215.06 602.93 221.02 589.47 223.91 583.06C224.662 581.421 225.113 579.659 225.24 577.86C225 577.58 224.66 577.29 224.39 577Z" fill="#91DC4F"/>
<path d="M106.25 727.59C106.25 727.59 107.96 724.98 111.6 719.73C114.648 715.398 118.36 711.575 122.6 708.4C128.69 703.82 131.16 704.33 133.08 700.54C134.282 697.978 134.926 695.19 134.97 692.36C135.03 689.1 134.23 688.12 134.97 685.86C135.76 683.44 137.52 681.96 139.37 680.41C142.9 677.41 144.01 678.3 145.66 676.21C147.73 673.61 147.66 670.21 147.55 666.98C147.44 662.93 145.93 662.66 146.29 659.85C146.87 655.42 150.64 652.5 150.91 652.3C153.56 650.3 155.29 650.87 156.78 648.95C158.27 647.03 157.92 644.05 157.83 642.87C157.63 640.39 156.83 639.5 157.41 637.87C157.862 636.735 158.673 635.779 159.72 635.15C161.84 633.78 163.23 634.79 164.96 633.89C167.75 632.44 168.02 627.79 168.1 626.34C168.32 622.66 166.98 622.21 166.43 616.9C166.09 613.73 165.87 611.58 166.64 608.9C167.71 605.19 169.64 604.42 169.57 601.56C169.57 599.76 168.77 596.88 167.06 596.11C161.2 593.47 142.94 614.36 142.94 614.36C142.276 612.182 141.939 609.917 141.94 607.64C141.7 598.5 143.03 595.51 141.94 589.4C141.53 587.12 140.62 581.99 138.37 581.64C136.43 581.33 134.3 584.74 132.52 587.64C129.09 593.14 129.83 595.24 127.05 597.64C126.05 598.52 123.69 599.22 119.05 600.57C110.97 602.95 110.05 602.66 108.35 604.14C104.21 607.68 104.35 613.58 104.35 614C104.615 616.913 105.708 619.689 107.5 622C105.607 621.628 103.648 621.773 101.83 622.42C99.19 623.5 97.19 626.77 97.83 628.93C98.28 630.42 99.67 630.28 100.56 632.28C101.151 633.679 101.222 635.243 100.76 636.69C99.84 639.18 97.6 638.93 96.57 641.51C96.0388 642.894 96.0388 644.426 96.57 645.81C97.46 647.81 99.11 647.5 100.14 649.58C100.75 650.931 100.86 652.455 100.45 653.88C99.86 655.6 98.75 655.6 98.45 657.13C98.3095 658.524 98.7225 659.918 99.6 661.01C100.72 662.57 101.69 662.4 102.22 663.53C102.82 664.82 102.16 666.3 101.07 668.46C98.76 673.03 97.99 673.78 97.07 675.69C95.5395 678.961 94.9608 682.596 95.4 686.18C95.88 689.44 96.97 689.43 98.02 694.25C98.4785 696.498 98.7594 698.778 98.86 701.07C99.0133 703.865 99.0133 706.665 98.86 709.46C98.7 717.67 106.25 727.59 106.25 727.59Z" fill="#7BCE34"/>
<path d="M166.16 611.63C164.734 612.986 163.027 614.01 161.16 614.63C155.11 616.71 143.11 620.93 139.56 622.17C141.56 617.99 143.05 614.99 144 613.17C143.34 613.89 143 614.33 143 614.33C143 614.33 142.91 614.09 142.79 613.66C141.45 616.24 139.33 620.52 136.69 626.42C126.57 623.51 127.99 603.26 129 595.03C128.716 595.643 128.345 596.212 127.9 596.72C126.9 605.96 126.26 624.2 136.33 627.23C135.76 628.51 135.17 629.88 134.56 631.31C118.96 633.72 109.43 623.87 106.19 619.76C106.587 620.5 107.046 621.206 107.56 621.87C107.56 621.87 107.23 621.8 106.71 621.74C110.39 625.9 118.11 632.56 129.77 632.56C131.239 632.557 132.705 632.454 134.16 632.25C132.88 635.25 131.51 638.63 130.09 642.25C122.69 648.77 106.97 650.04 100.54 650.25C100.621 650.539 100.685 650.833 100.73 651.13C107.02 650.9 121.47 649.73 129.46 643.84C128.28 646.91 127.06 650.2 125.82 653.68C108 665.26 99.9 673 96.26 677.78C95.9955 678.596 95.7818 679.428 95.62 680.27C98.21 676.13 105.4 668.05 125.29 655.12C124.55 657.213 123.81 659.367 123.07 661.58C123.073 661.613 123.073 661.647 123.07 661.68C121.32 666.91 119.54 672.52 117.78 678.51C117.78 678.59 115.53 686.12 106.56 692.37C103.168 694.723 100.539 698.019 99 701.85C99 702.71 99.06 703.5 99.07 704.23C100.384 699.706 103.207 695.767 107.07 693.07C110.802 690.526 113.974 687.246 116.39 683.43C112.71 696.43 109.14 711 105.99 727.14L106.33 727.59L106.99 726.59C111.011 705.755 116.308 685.186 122.85 665C122.62 672.39 123.17 690.06 132.33 701.78C132.5 701.55 132.66 701.29 132.83 701.02C122.01 686.9 123.69 664.15 123.89 661.85C125.19 657.98 126.48 654.32 127.73 650.85C129.225 655.551 131.786 659.843 135.214 663.391C138.641 666.938 142.843 669.645 147.49 671.3C147.49 671 147.49 670.69 147.56 670.39C132.02 664.39 128.62 651.08 128.26 649.39C130.12 644.34 131.92 639.77 133.6 635.69C135.38 637.35 141.88 642.51 153.48 642.51C154.84 642.51 156.28 642.43 157.78 642.28C157.78 641.97 157.7 641.68 157.65 641.42C142.94 642.94 135.28 636.14 133.96 634.83C135.82 630.32 137.54 626.44 139.04 623.2C140.9 622.55 154.78 617.67 161.43 615.38C163.142 614.812 164.735 613.934 166.13 612.79C166.13 612.44 166.14 612 166.16 611.63Z" fill="#91DC4F"/>
<path d="M853.81 594.71C853.66 602.89 852.92 628.16 849.2 643.04C846.11 655.39 831 665 825.41 667.61L826.5 669.93L833.44 671.36C833.04 674.98 825.72 678.82 825.23 682.2L825.59 682.96C826.7 682.44 859.59 669.61 865.25 647.05C869.79 628.87 870.32 598.86 870.38 593.05C865.022 594.698 859.389 595.262 853.81 594.71Z" fill="#BCDDEC"/>
<path d="M582.75 659.92L589.48 703.92C589.48 703.92 513.54 732.92 487.48 826.03H780.08V803C780.08 803 817.61 778.24 819.21 688.41L582.75 659.92Z" fill="#E3EAF3"/>
<path d="M819.21 688.39L582.75 659.92L582.9 660.66C598.05 674.46 621.9 709.04 637.13 736.98C660.95 780.64 724.98 834.25 780.13 802.98L781.66 802.07C788.44 797.61 817.81 767 819.21 688.39Z" fill="#396E8E"/>
<path d="M829.23 667.08C795.23 681.15 738.31 678.3 683.81 666.08C631.46 654.32 581.81 637.14 530.64 663.25C531.07 663.17 577.79 654.84 637.74 675.17C697.97 695.6 781.17 718.64 807.82 700.39C828.02 686.55 837.25 666.54 840.54 657.66C838.61 661.41 835 664.68 829.23 667.08Z" fill="#54A4CC"/>
<path d="M832.7 613.87C832.7 613.87 792.6 597 839 561.25C885.4 525.5 894.79 511.62 899.75 503.68C904.71 495.74 925 465 955.3 473.4C955.3 473.4 951.82 493.75 941.4 508.14C930.98 522.53 897.22 565.72 897.22 565.72C897.22 565.72 861.49 618.33 832.7 613.87Z" fill="#E3EAF3"/>
<path d="M955.3 473.4C955.3 473.4 933.46 456.03 952.81 435.18C972.16 414.33 990.04 411.85 998.48 415.82C1006.92 419.79 955.3 473.4 955.3 473.4Z" fill="#4B73A6"/>
<path d="M955.3 473.4C955.3 473.4 933.46 456.03 952.81 435.18C972.16 414.33 990.04 411.85 998.48 415.82C1006.92 419.79 955.3 473.4 955.3 473.4Z" fill="#E3EAF3"/>
<path d="M1003.94 410.36C991.03 410.36 994.46 427.72 972.11 437.66C949.76 447.6 955.3 473.4 955.3 473.4C929.98 481.84 920.55 547.85 888.79 559.76C857.03 571.67 832.7 613.87 832.7 613.87C881.84 639.68 934.45 541.4 945.87 524C953.6 512.22 966.79 489.29 966.62 478.35C1018.67 422.93 1016.84 410.36 1003.94 410.36Z" fill="#54A4CC"/>
<path d="M418.84 736.85C418.84 736.85 399 719.48 467.41 683.74C535.82 648 576.32 611.14 621.93 614.17C667.54 617.2 718.73 616.66 762.19 610.22C805.65 603.78 803.97 587.47 821.19 591.69C838.41 595.91 867.99 635.18 834.87 670.32C809.61 697.13 758.79 684.2 704.29 671.96C649.79 659.72 598.17 641.57 544.81 672.54C491.45 703.51 421.32 746.14 418.84 736.85Z" fill="#E3EAF3"/>
<path d="M347.08 827C343 813.16 324.82 788.6 328.51 771.14C322.41 772.82 305.4 758.69 298.85 753.47C298.85 753.47 288.6 762.87 283.52 771.01C278.44 779.15 277.23 781.61 277.23 781.61L289.44 791.24L291.54 787.71C291.54 787.71 299.07 792.71 300.68 799.49C302.29 806.27 310.84 819.05 324.07 826.1C337.3 833.15 351.17 840.81 347.08 827Z" fill="#CC7829"/>
<path d="M298.85 753.45C298.85 753.45 288.6 762.85 283.52 770.99C282.33 772.89 281.36 774.48 280.52 775.8C284.86 779.14 290.28 782.56 290.08 778.57C289.74 771.96 301.53 755.57 301.53 755.57C300.52 754.77 299.59 754.05 298.85 753.45ZM347.74 830.06C347.61 829.016 347.389 827.986 347.08 826.98C345.36 821.15 341.66 813.63 338.22 805.58C332.377 803.422 326.014 803.094 319.98 804.64C314.62 806.12 310.2 811.7 308.73 812.11C309.46 817.63 343.8 836.76 346.73 833.96C346.761 833.924 346.794 833.891 346.83 833.86C347.572 832.74 347.894 831.394 347.74 830.06V830.06Z" fill="#E3EAF3"/>
<path d="M324.07 826.08C334.69 831.74 345.72 837.8 347.54 832.81C310.44 821.69 305.43 800.96 305.4 795.64C305.37 790.32 299.9 786.54 299.9 786.54C289.5 780.21 285.9 773.44 284.74 769.14C284.31 769.76 283.9 770.38 283.52 770.99C278.44 779.13 277.23 781.59 277.23 781.59L289.44 791.22L291.54 787.69C291.54 787.69 299.07 792.69 300.68 799.47C302.29 806.25 310.84 819 324.07 826.08Z" fill="#7C2F13"/>
<path d="M431.41 494.81C431.41 494.81 447 633.34 447.51 645.54C448.02 657.74 440.92 784.67 440.92 784.67C440.92 784.67 421.97 792.32 408.3 787.11C408.3 787.11 397.56 689.8 399.19 665.11L395.61 618.25C395.61 618.25 392.68 657.25 389.75 661.86C386.82 666.47 329.87 773.48 329.87 773.48C329.87 773.48 297.32 758.84 297.32 754.61C297.32 754.61 316.2 676.5 340.32 654.7L340.65 564.06C335.249 550.411 333.238 535.656 334.79 521.06C335.81 511.782 338.28 502.722 342.11 494.21C342.11 494.21 411.89 504.57 431.41 494.81Z" fill="#37D6BA"/>
<path d="M396.75 603.07C399.35 573.07 404.75 544.31 406.51 544.49C407.86 544.63 406.46 559.56 406.02 593.8C405.66 621.73 406.21 640.48 407.02 667.02C408.55 718.83 410.62 727.71 412.84 734.88C418.665 753.24 428.233 770.194 440.94 784.67C434.54 787.55 424.17 790.87 412.58 788.31C411.138 787.991 409.716 787.591 408.32 787.11C408.32 787.11 397.58 689.8 399.21 665.11L395.74 619.75C395.86 615.16 396.13 610.15 396.75 603.07Z" fill="#0AA68B"/>
<path d="M321.54 723.89C325.54 702.44 337.68 698.21 347.66 673.1C353.66 657.99 354.37 640.64 355.76 605.93C357.89 552.72 352.28 548.64 359.29 535.71C377.76 501.63 432.17 500.5 431.41 494.81C410.33 502.05 351.79 495.46 343.15 494.35L342.45 494.26H342.22H342.11C338.28 502.772 335.81 511.832 334.79 521.11C333.238 535.706 335.249 550.461 340.65 564.11L340.32 654.75C316.24 676.55 297.32 754.66 297.32 754.66C298.08 755.66 298.89 756.58 299.75 757.53C306.29 762.6 324.16 770.92 328.75 773.03H328.85H328.94L329.17 773.14L329.31 773.2H329.41L329.54 773.26H329.6L329.86 773.38C324.08 761.55 317.81 743.69 321.54 723.89Z" fill="#0AA68B"/>
<path d="M375.88 507C375.88 513 375.88 519.02 375.88 525.06L375.8 543.12L375.37 579.23C375.22 591.23 374.98 603.3 374.75 615.33L373.93 651.44V651.75L373.8 652.03C369.24 661.72 364.73 671.44 360.13 681.11C355.53 690.78 350.96 700.47 346.3 710.11L332.33 739C327.59 748.61 322.93 758.26 318.12 767.83C322.35 757.99 326.75 748.22 331.06 738.41L344.27 709.12C348.66 699.34 353.13 689.61 357.6 679.88C362.07 670.15 366.6 660.44 371.09 650.71L370.95 651.3L371.85 615.21C372.21 603.21 372.54 591.14 372.96 579.11L374.26 543.02L375.03 525.02C375.283 519.007 375.567 513 375.88 507Z" fill="#E3EAF3"/>
<path d="M339 502C346.76 503.24 354.54 504 362.32 504.66C366.22 504.93 370.11 505.26 374.01 505.42L376.93 505.59L379.86 505.71C381.81 505.78 383.76 505.89 385.71 505.92C389.61 506.03 393.51 506.16 397.42 506.15C399.37 506.15 401.33 506.25 403.28 506.21C405.23 506.17 407.19 506.21 409.15 506.21C411.11 506.21 413.06 506.21 415.01 506.16L420.89 506.1C424.81 506.1 428.72 505.91 432.66 505.95C428.78 506.57 424.887 507.11 420.98 507.57C417.07 507.92 413.15 508.37 409.22 508.57C401.37 509.08 393.49 509.15 385.62 508.95C383.62 508.89 381.68 508.76 379.71 508.67C377.74 508.58 375.78 508.46 373.82 508.28C369.9 507.95 365.97 507.56 362.07 507.01C358.17 506.46 354.28 505.83 350.42 505.01C346.557 504.233 342.744 503.228 339 502Z" fill="#E3EAF3"/>
<path d="M486.44 816.46C475.56 808.12 447.84 799.46 440.9 783.95C437.15 788.66 416.18 787.33 408.22 786.95C408.22 786.95 405.61 799.95 406.22 808.95C406.83 817.95 407.33 820.62 407.33 820.62L422.1 821.18L421.73 817.29C421.73 817.29 430.32 816.91 435.35 821.23C440.38 825.55 454.11 830.56 468.22 828.57C482.33 826.58 497.33 824.8 486.44 816.46Z" fill="#CC7829"/>
<path d="M408.22 787C408.22 787 405.61 800 406.22 809C406.38 811.13 406.52 812.89 406.65 814.36C411.85 814.49 417.93 814.08 415.54 811.13C411.54 806.24 411.47 787.07 411.47 787.07L408.22 787ZM488.67 818.46C487.984 817.732 487.238 817.063 486.44 816.46C481.86 812.95 474.8 809.25 467.65 804.99C461.948 806.594 456.874 809.906 453.11 814.48C449.82 818.62 449.55 825.38 448.66 826.48C452.31 830.3 489.4 825.78 490.11 821.96C490.11 821.96 490.11 821.88 490.11 821.83C490.034 820.574 489.525 819.383 488.67 818.46V818.46Z" fill="#E3EAF3"/>
<path d="M468.26 828.66C479.59 827.06 491.45 825.54 490.06 820.66C455.33 832.89 439.88 819.77 436.88 815.66C433.88 811.55 427.55 811.74 427.55 811.74C416.02 812.74 409.5 809.49 406.18 806.87C406.18 807.59 406.18 808.29 406.26 808.97C406.92 818.07 407.37 820.64 407.37 820.64L422.14 821.2L421.77 817.31C421.77 817.31 430.36 816.93 435.39 821.25C440.42 825.57 454.15 830.65 468.26 828.66Z" fill="#7C2F13"/>
<path d="M363.4 365.75C377.196 365.75 388.38 354.566 388.38 340.77C388.38 326.974 377.196 315.79 363.4 315.79C349.604 315.79 338.42 326.974 338.42 340.77C338.42 354.566 349.604 365.75 363.4 365.75Z" fill="black"/>
<path d="M393.65 345.4C363.65 352.4 356.57 336.96 355.73 323.96C354.89 310.96 359.84 289.21 378.73 282.15C397.62 275.09 454.69 331.18 393.65 345.4Z" fill="black"/>
<path d="M395.55 280.82C383.16 283.23 375.55 299.02 377.3 317.35H377.21C373.82 318.01 371.82 322.35 372.74 327.12C373.66 331.89 377.16 335.12 380.55 334.5C381.001 334.407 381.435 334.248 381.84 334.03C388.73 347.9 402.1 355.63 413.1 353.48C426.75 350.82 431.59 333.97 427.56 313.34C423.53 292.71 409.21 278.15 395.55 280.82Z" fill="#EA9D7D"/>
<path d="M408.75 364.32C408.12 362.1 410.7 356.71 412.35 353.6C401.49 355.26 388.57 347.6 381.84 334.04C381.435 334.258 381.001 334.417 380.55 334.51C380.55 334.51 379.49 362.72 373.38 363.07C366.23 369.2 342.87 389.96 347.63 399.6C351.63 407.67 373.19 403.51 405.34 397.29C408.468 396.808 411.386 395.417 413.73 393.29C420.48 386.86 418.64 375.29 417.73 372.68C416.46 369.28 409.65 367.51 408.75 364.32Z" fill="#EA9D7D"/>
<path d="M379.64 345.74C380.35 339.74 380.55 334.51 380.55 334.51C381.001 334.417 381.435 334.258 381.84 334.04C388.57 347.6 401.49 355.26 412.35 353.6C411.114 355.863 410.068 358.225 409.22 360.66L408.39 360.85C398.6 362.76 386.94 356.85 379.64 345.74Z" fill="#D18165"/>
<path d="M420.48 336.601C416.739 335.916 413.05 334.977 409.437 333.79C409.437 333.79 409.2 339.167 413.58 340.297C417.961 341.428 420.48 336.601 420.48 336.601Z" fill="#BE3E5F"/>
<path d="M418.64 312C419.09 314 419.48 316 420.03 317.93C420.278 318.836 420.634 319.709 421.09 320.53C421.28 320.87 421.63 321.34 421.91 321.76C422.19 322.18 422.47 322.65 422.74 323.13C423.37 324.169 423.693 325.365 423.67 326.58C423.601 327.31 423.266 327.99 422.73 328.49C422.251 328.923 421.669 329.226 421.04 329.37C418.924 329.777 416.739 329.625 414.7 328.93C416.68 328.834 418.641 328.498 420.54 327.93C420.893 327.777 421.215 327.56 421.49 327.29C421.689 327.065 421.793 326.771 421.78 326.47C421.696 325.633 421.422 324.826 420.98 324.11C420.76 323.69 420.5 323.27 420.24 322.85C419.98 322.43 419.71 322.05 419.43 321.47C418.96 320.464 418.65 319.391 418.51 318.29C418.214 316.2 418.258 314.076 418.64 312V312Z" fill="#D18165"/>
<path d="M400.51 309.33C402.521 309.275 404.526 309.082 406.51 308.75C407.472 308.587 408.419 308.343 409.34 308.02C410.34 307.73 411.17 307.28 412.19 306.87C411.599 307.789 410.797 308.554 409.85 309.1C408.911 309.674 407.873 310.068 406.79 310.26C405.72 310.453 404.627 310.477 403.55 310.33C402.48 310.202 401.447 309.862 400.51 309.33V309.33ZM425.69 306.24C425.86 306.73 426.02 307.24 426.16 307.71H426.02C424.95 307.903 423.857 307.927 422.78 307.78C421.702 307.659 420.661 307.319 419.72 306.78C421.72 306.739 423.715 306.559 425.69 306.24V306.24ZM425 319.59C424.601 319.666 424.188 319.582 423.851 319.356C423.514 319.129 423.28 318.778 423.2 318.38L422.35 313.98C422.302 313.78 422.295 313.571 422.33 313.368C422.364 313.165 422.439 312.971 422.551 312.797C422.662 312.624 422.807 312.475 422.978 312.359C423.148 312.243 423.34 312.162 423.543 312.123C423.745 312.083 423.953 312.084 424.155 312.127C424.357 312.17 424.548 312.253 424.716 312.371C424.885 312.49 425.028 312.641 425.137 312.816C425.246 312.991 425.319 313.186 425.35 313.39L426.21 317.79C426.287 318.189 426.202 318.602 425.976 318.939C425.749 319.276 425.398 319.51 425 319.59V319.59ZM409.55 320.53C409.151 320.606 408.738 320.522 408.401 320.296C408.064 320.069 407.83 319.718 407.75 319.32L406.89 314.92C406.842 314.72 406.835 314.511 406.87 314.308C406.904 314.105 406.979 313.911 407.091 313.737C407.202 313.564 407.347 313.415 407.518 313.299C407.688 313.183 407.88 313.102 408.083 313.063C408.285 313.023 408.493 313.024 408.695 313.067C408.897 313.11 409.088 313.193 409.256 313.311C409.425 313.43 409.568 313.581 409.677 313.756C409.786 313.931 409.859 314.126 409.89 314.33L410.75 318.73C410.827 319.128 410.744 319.539 410.519 319.876C410.295 320.213 409.946 320.448 409.55 320.53Z" fill="black"/>
<path d="M377.09 321.57C376.76 323.218 376.736 324.913 377.02 326.57C377.175 327.345 377.427 328.098 377.77 328.81C377.91 329.2 378.15 329.56 378.33 329.98C378.571 330.387 378.788 330.808 378.98 331.24C378.504 331.102 378.046 330.904 377.62 330.65C377.196 330.366 376.81 330.03 376.47 329.65C375.759 328.89 375.271 327.949 375.06 326.93C374.838 325.903 374.918 324.833 375.29 323.85C375.635 322.919 376.265 322.121 377.09 321.57V321.57Z" fill="#D18165"/>
<path d="M422.73 299.09C422.73 299.09 416.46 289.34 414.64 291.52C412.82 293.7 409.33 299.58 397.41 298.95C397.41 298.95 389.41 309.35 387.76 321.56C386.11 333.77 377.21 317.36 377.21 317.36C377.21 317.36 365.81 288.96 378.12 282.2C390.43 275.44 402.77 275.29 415.06 282.2C427.35 289.11 422.73 299.09 422.73 299.09Z" fill="black"/>
<path d="M373.38 363.07C377.11 362.85 378.95 352.29 379.83 344.07L385.3 346.53L389.99 356.33C389.99 356.33 380.99 358.33 385.3 367.53C389.13 375.82 399.3 394.64 414 393.03C411.87 394.21 408.93 395.73 405.34 397.29C381.8 407.54 349.67 410.77 344.99 401.52C340.31 392.27 363.69 371.29 373.38 363.07Z" fill="#D18165"/>
<path d="M391 310.42C391 310.42 407.3 301.72 424.29 301.57C424.29 301.57 429.52 281.49 403.6 277.57C377.68 273.65 355.3 292.66 355.69 316.85C355.69 316.85 361.69 327.43 372.79 327.16C383.89 326.89 381.4 311.52 391 310.42Z" fill="#37D6BA"/>
<path d="M424.42 300.65C424.032 300.2 423.568 299.821 423.05 299.53C422.457 299.241 421.817 299.058 421.16 298.99C419.59 298.72 418.7 298.57 418.16 299.08C417.62 299.59 418.03 299.75 417.62 300.25C417.365 300.56 417.022 300.785 416.637 300.898C416.252 301.01 415.842 301.004 415.46 300.88C414.86 300.6 415.04 300.03 414.38 299.62C414.064 299.443 413.707 299.35 413.345 299.35C412.983 299.35 412.626 299.443 412.31 299.62C411.64 300 411.82 300.48 411.14 301.15C410.419 301.786 409.492 302.141 408.53 302.15C407.21 302.15 406.98 301.48 406.1 301.7C405.22 301.92 405.36 302.58 404.03 303.77C401.86 305.7 401.25 305.61 401.03 305.57C400.24 305.39 400.12 304.47 399.23 304.4C398.771 304.401 398.326 304.56 397.97 304.85C396.67 305.64 396.54 306.4 395.81 306.85C395.27 307.16 394.31 307.35 392.48 306.49C392.48 306.49 390.61 305.9 390.05 306.49C389.49 307.08 390.53 308.13 389.96 309.01C389.77 309.23 389.535 309.408 389.271 309.533C389.008 309.657 388.721 309.724 388.43 309.73C387.08 309.81 386.25 309.11 385.43 309.03C384.99 308.98 385.69 309.79 385.24 310.81C385.06 311.21 384.64 312.16 383.89 312.34C382.89 312.57 382.18 311.34 381.55 311.71C381.08 311.96 381.33 312.77 380.83 312.97C380.15 313.24 379.58 312.27 378.83 312.34C377.39 312.47 377.56 316.34 375.77 317.47C373.6 318.79 369.35 315.54 368.39 314.77C361.99 309.68 360.66 303.16 358.85 300.77C356.559 305.83 355.421 311.336 355.52 316.89C355.52 316.89 361.52 327.47 372.62 327.2C383.72 326.93 381.28 311.59 390.83 310.49C390.83 310.49 407.13 301.79 424.12 301.64C424.24 301.57 424.33 301.23 424.42 300.65Z" fill="#0AA68B"/>
<path d="M386.83 309.45C386.83 309.45 386.98 311.23 386.1 311.75C385.15 312.393 384.238 313.09 383.37 313.84C383.37 313.84 379.71 312.91 377.94 307.09C377.414 304.975 377.169 302.799 377.21 300.62C377.214 300.47 377.268 300.327 377.363 300.211C377.458 300.096 377.589 300.016 377.736 299.983C377.882 299.951 378.034 299.969 378.169 300.033C378.304 300.098 378.414 300.206 378.48 300.34C380 303.62 382.77 308.51 386.83 309.45ZM396.44 306.93C396.44 306.93 395.92 308.38 394.9 308.51C393.774 308.722 392.662 309.002 391.57 309.35C391.57 309.35 388.57 307.04 389.26 301C389.606 298.863 390.234 296.781 391.13 294.81C391.192 294.672 391.299 294.56 391.433 294.491C391.567 294.421 391.721 294.399 391.869 294.428C392.017 294.457 392.151 294.535 392.249 294.65C392.348 294.765 392.404 294.909 392.41 295.06C392.44 298.72 393.07 304.46 396.44 306.93ZM411.52 300.74C411.52 300.74 412.4 302.01 413.42 301.86C414.44 301.71 417.53 301.57 417.53 301.57C417.53 301.57 419.14 298.8 416.91 293.14C416.016 291.168 414.866 289.322 413.49 287.65C413.394 287.533 413.261 287.452 413.113 287.42C412.965 287.388 412.81 287.407 412.674 287.474C412.538 287.542 412.429 287.653 412.365 287.79C412.301 287.928 412.285 288.083 412.32 288.23C413.24 291.77 414.13 297.47 411.52 300.74Z" fill="#0AA68B"/>
<path d="M515.82 477.13L526.15 477.55C526.15 477.55 528.4 475.76 531.44 473.44C537.2 469.05 545.82 462.72 547.59 462.83C550.3 462.99 555.01 464.96 543.29 473.99L543.38 474.07C543.77 474.37 545.58 475.55 550.21 475.83C555.54 476.16 573.49 477.38 576.41 478.48C577.99 479.07 581.54 483.83 554.92 482.89C554.711 482.88 554.502 482.915 554.308 482.994C554.114 483.073 553.939 483.193 553.796 483.347C553.653 483.5 553.546 483.683 553.481 483.882C553.416 484.081 553.395 484.292 553.42 484.5C553.51 484.99 553.87 485.43 554.83 485.5C557.24 485.64 578.05 485.99 577.69 489.75C577.43 492.49 571.98 491.82 553.69 491.01C553.69 491.01 550.79 491.76 553.1 493.25C553.9 493.76 574.52 495.69 575.53 497.32C576.54 498.95 579.19 501.63 548.26 498.25C548.26 498.25 547.71 498.56 550.41 500.13C553.27 501.8 561.73 504.05 563.89 507.2C566.05 510.35 559.77 507.85 543.89 502.52L521.61 499.69C506.88 501.76 451.76 506.47 438.07 492.24C425.24 478.92 418.34 431.24 418.34 431.24L449.71 430.24L462.85 465.78C463.279 466.945 464.014 467.973 464.979 468.754C465.943 469.536 467.101 470.042 468.33 470.22L517.66 477.34" fill="#EA9D7D"/>
<path d="M543.61 474C543.61 474 539.29 490.18 524.52 485.71" stroke="#2F170B" stroke-width="2" stroke-miterlimit="10"/>
<path d="M455.17 432.51L443.17 394.95C440.843 387.455 436.313 380.834 430.17 375.95C428.599 374.7 426.899 373.621 425.1 372.73C424.945 372.656 424.773 372.623 424.601 372.635C424.43 372.647 424.264 372.702 424.12 372.797C423.976 372.891 423.859 373.021 423.78 373.174C423.702 373.327 423.664 373.498 423.67 373.67L425.57 432.48L429.49 479.23C429.609 482.674 430.417 486.06 431.864 489.188C433.312 492.316 435.37 495.122 437.919 497.442C440.467 499.763 443.454 501.55 446.704 502.698C449.953 503.847 453.4 504.333 456.84 504.13L516.25 501.49L515.74 477.1L472.9 466C471.223 465.564 469.674 464.734 468.382 463.579C467.09 462.424 466.091 460.978 465.47 459.36L455.17 432.51Z" fill="#37D6BA"/>
<path d="M424.15 386.17C424.698 385.6 425.433 385.245 426.22 385.17C427.31 385.17 429.89 385.59 434.38 395.01C436.22 398.694 437.674 402.558 438.72 406.54C442.89 426.19 444.84 460.76 452.84 475.62C458.68 486.49 473.9 498.23 516.3 499.77V501.54L456.89 504.18C453.45 504.383 450.003 503.897 446.754 502.748C443.504 501.6 440.517 499.813 437.969 497.492C435.42 495.172 433.362 492.366 431.914 489.238C430.467 486.11 429.659 482.724 429.54 479.28L426.39 441.64C427.65 438.14 428.8 435.01 429.74 432.53H425.62L424.15 386.17Z" fill="#0AA68B"/>
<path d="M279.69 566.83C280.143 565.031 280.388 563.185 280.42 561.33C280.65 545.76 282.13 486.33 291.1 459.33C293.95 450.71 320.16 406.8 320.16 406.8L357.6 414.71L324.6 469.5C323.134 471.927 322.057 474.569 321.41 477.33L301.33 563C301.054 564.176 301.045 565.399 301.303 566.579C301.56 567.759 302.079 568.866 302.82 569.82C307.05 575.25 315.43 586.28 315.29 588.3C315.11 591.01 313.11 595.72 304.16 583.93C304.16 583.93 302.63 585.51 302.27 590.84C301.91 596.17 301.15 616.69 299.46 617.03C297.77 617.37 293.97 622.25 295.23 594.37C295.23 594.37 292.76 593 292.6 595.37C292.44 597.74 291.05 620.67 288.2 618.21C285.35 615.75 286.2 612.48 287.08 594.21C287.08 594.21 285.21 592.72 284.85 593.61C284.49 594.5 282.44 616.12 280.63 616C278.82 615.88 276.31 619.64 279.88 588.74C279.88 588.74 278.88 588.22 277.75 591.32C276.62 594.42 272.24 608.03 270.83 604.32C269.42 600.61 270.2 600.19 275.64 584.38L279.69 566.81V566.83Z" fill="#EA9D7D"/>
<path d="M357.6 414.69L348.77 412.83C342.17 421.2 333.97 427.28 323.28 442.92C314.96 455.11 309.57 467.51 307.18 472.75C300.62 487.12 301.95 494.44 297.58 529.87C294.95 551.15 293.64 561.79 292.26 567.35C292.26 567.35 284.17 604.48 287.2 617.08C287.27 617.331 287.396 617.562 287.57 617.756C287.743 617.951 287.959 618.102 288.2 618.2C291.05 620.66 292.43 597.77 292.6 595.36C292.77 592.95 295.23 594.36 295.23 594.36C293.97 622.24 297.78 617.36 299.46 617.02C301.14 616.68 301.91 596.26 302.27 590.87C302.63 585.54 304.16 583.96 304.16 583.96C313.11 595.75 315.11 591.04 315.29 588.33C315.43 586.33 307.05 575.33 302.82 569.85C302.079 568.896 301.56 567.789 301.303 566.609C301.045 565.429 301.054 564.206 301.33 563.03L321.44 477.38C322.087 474.619 323.164 471.977 324.63 469.55L357.6 414.69Z" fill="#D18165"/>
<path d="M447.66 603.82C446.898 604.574 445.994 605.17 445 605.571C444.006 605.973 442.942 606.173 441.87 606.16H324.58C323.366 606.161 322.166 605.899 321.063 605.393C319.959 604.887 318.978 604.149 318.186 603.229C317.394 602.309 316.81 601.229 316.474 600.062C316.139 598.896 316.059 597.67 316.24 596.47L356.47 370.26L373.15 363.94C375.55 362.63 376.58 358.64 376.98 356.36C377.06 355.927 377.308 355.544 377.67 355.293C378.031 355.042 378.477 354.944 378.91 355.02L408.8 360.37C409.015 360.407 409.221 360.487 409.406 360.605C409.59 360.722 409.749 360.875 409.874 361.055C409.998 361.234 410.086 361.437 410.132 361.651C410.178 361.864 410.18 362.085 410.14 362.3C409.8 364.21 409.56 367.13 411.26 367.39L423.7 372.12C426.166 372.72 428.345 374.163 429.86 376.199C431.376 378.234 432.133 380.736 432 383.27L431.85 387.78C431.37 402.42 428.02 453.07 431.5 488.23C436.65 540.12 449.38 580.43 448.67 602.04C448.67 602.22 448.64 602.83 447.66 603.82Z" fill="#37D6BA"/>
<path d="M276.68 560.92C275.26 559.92 280.08 503.92 284.84 473.06C286.51 462.23 291.61 445.69 297.56 436.48C297.56 436.48 317.08 402.85 329.96 388C334.56 382.7 343.09 373 356.47 370.26L364.09 410L326.72 471.64C326.3 472.28 304.79 561.36 304.16 560.92H276.68Z" fill="#37D6BA"/>
<path d="M362.92 407.89C363.219 408.129 363.459 408.433 363.621 408.78C363.782 409.128 363.861 409.507 363.85 409.89L363.91 410.28L347.56 437.28L326.72 471.65C326.3 472.29 304.79 561.37 304.16 560.93H294.16L294.22 560.67C307.3 502.06 313.89 472.67 316 467.45C330.12 432.73 358.06 405.2 362.92 407.89Z" fill="#0AA68B"/>
<path d="M516.38 477.13V499.32" stroke="#2F170B" stroke-width="6" stroke-linecap="round" stroke-linejoin="round"/>
<path d="M316.24 596.47L316.51 594.93L345.26 433.48C351.99 419.48 360.59 407.04 362.92 407.89C364.92 408.63 363.85 417.98 363.92 419.08C366.92 469.43 430.13 441.37 430.77 440.32C429.91 444.67 427.83 451.58 422.13 457.06C408.48 470.19 385.79 463.94 379.07 462.06L378.76 461.97C375.62 461.058 372.306 460.919 369.1 461.563C365.894 462.207 362.892 463.616 360.347 465.671C357.803 467.725 355.793 470.363 354.488 473.361C353.182 476.359 352.62 479.628 352.85 482.89C356.08 525.89 378.93 555.73 378.93 555.73C398.85 581.73 430.82 594.24 448.73 599.85C448.764 600.57 448.748 601.292 448.68 602.01C448.25 604.74 444.42 606.13 442 606.25C431.26 606.75 384.5 606.13 384.5 606.13H324.58C323.369 606.13 322.172 605.869 321.071 605.365C319.97 604.861 318.99 604.126 318.199 603.209C317.408 602.292 316.823 601.216 316.485 600.053C316.147 598.89 316.063 597.668 316.24 596.47V596.47ZM411.26 367.39C408.205 367.903 405.108 368.127 402.01 368.06C398.911 368.024 395.818 367.786 392.75 367.35C391.22 367.14 389.7 366.84 388.18 366.55C386.66 366.26 385.18 365.89 383.67 365.41C380.683 364.576 377.784 363.457 375.01 362.07C378.06 362.66 381.01 363.36 384.01 363.89C387.01 364.42 390.01 364.97 393.01 365.37C396.01 365.77 399.01 366.18 402.07 366.51C405.13 366.84 408.18 367.11 411.26 367.39Z" fill="#0AA68B"/>
</svg>
